:FULLY-SPECIFIED
:FORCE-ALL-JOINTS-BE-3DOF
:DEGREES
747
root 3.96648 17.8641 14.2 -153.966 -7.39056 223.603
lfemur -22.9591 -9.30916 -9.13568
ltibia 22.3566 0 0
lfoot -10.2725 -6.22811 0
ltoes 11.5184 0 0
rfemur -26.4893 -31.2675 -0.206714
rtibia 118.63 0 0
rfoot 20.7474 2.37919 0
rtoes 19.3119 0 0
lowerback 1.03616 7.86018 0.955415
upperback -2.17789 10.5013 -1.35661
thorax -2.43833 5.2077 -2.2391
lowerneck -7.46873 -7.89286 -1.10853
upperneck -2.27504 -10.5393 3.34614
head 0.765463 -5.27523 0.889565
lclavicle -4.88279e-014 -3.7779e-014 0
lhumerus -62.7213 -13.3471 63.7264
lradius 50.6166 0 0
lwrist 19.8474 0 0
lhand -23.1188 -3.9823 0
lfingers 7.12502 0 0
lthumb 3.32876 25.9804 0
rclavicle -4.88279e-014 -3.7779e-014 0
rhumerus 31.199 22.8964 -60.5788
rradius 89.7811 0 0
rwrist -4.97432 0 0
rhand -28.824 -28.0239 0
rfingers 7.12502 0 0
rthumb -2.18145 -778.006 0
748
root 3.89276 17.8143 14.3521 -151.046 -4.47967 227.869
lfemur -23.2268 -8.74065 -9.50659
ltibia 22.7591 0 0
lfoot -10.7294 -5.51347 0
ltoes 11.5115 0 0
rfemur -26.3759 -31.3043 0.334757
rtibia 117.528 0 0
rfoot 19.6763 1.34129 0
rtoes 18.2146 0 0
lowerback 1.03769 7.81855 0.896347
upperback -2.14569 10.4458 -1.4338
thorax -2.40783 5.18114 -2.28408
lowerneck -7.41408 -7.89447 -1.1179
upperneck -2.32115 -10.535 3.40239
head 0.744298 -5.27161 0.911489
lclavicle -4.74007e-014 -3.70102e-014 0
lhumerus -62.9887 -13.2792 64.8604
lradius 51.1134 0 0
lwrist 19.5796 0 0
lhand -23.1249 -4.04393 0
lfingers 7.12502 0 0
lthumb 3.32296 25.9209 0
rclavicle -4.74007e-014 -3.70102e-014 0
rhumerus 29.8039 23.7727 -62.2652
rradius 89.5118 0 0
rwrist -4.62488 0 0
rhand -28.7208 -27.7306 0
rfingers 7.12502 0 0
rthumb -2.08166 -777.717 0
749
root 3.81683 17.7634 14.5019 -147.837 -1.47503 232.132
lfemur -23.5284 -8.12531 -9.86681
ltibia 23.2719 0 0
lfoot -11.194 -4.75729 0
ltoes 11.5255 0 0
rfemur -26.2402 -31.3162 0.911249
rtibia 116.268 0 0
rfoot 18.5582 0.25406 0
rtoes 17.0444 0 0
lowerback 1.04054 7.765 0.830858
upperback -2.11185 10.3743 -1.51575
thorax -2.37683 5.14664 -2.32985
lowerneck -7.35604 -7.89363 -1.12697
upperneck -2.36446 -10.5273 3.46285
head 0.723579 -5.26609 0.934889
lclavicle -4.58883e-014 -3.61564e-014 0
lhumerus -63.1879 -13.2161 66.001
lradius 51.6571 0 0
lwrist 19.3093 0 0
lhand -23.1322 -4.11069 0
lfingers 7.12502 0 0
lthumb 3.316 25.8565 0
rclavicle -4.58883e-014 -3.61564e-014 0
rhumerus 28.287 24.6598 -63.988
rradius 89.2402 0 0
rwrist -4.26153 0 0
rhand -28.6198 -27.4357 0
rfingers 7.12502 0 0
rthumb -1.98409 -777.426 0
750
root 3.73892 17.7117 14.6494 -144.359 1.6122 236.389
lfemur -23.8615 -7.46695 -10.2161
ltibia 23.8869 0 0
lfoot -11.6652 -3.963 0
ltoes 11.5592 0 0
rfemur -26.083 -31.3038 1.52008
rtibia 114.859 0 0
rfoot 17.3969 -0.877836 0
rtoes 15.8069 0 0
lowerback 1.04458 7.70035 0.759585
upperback -2.07648 10.2877 -1.602
thorax -2.34533 5.10475 -2.37631
lowerneck -7.29489 -7.89032 -1.13562
upperneck -2.405 -10.5163 3.52709
head 0.703323 -5.25872 0.959602
lclavicle -4.42974e-014 -3.52235e-014 0
lhumerus -63.3226 -13.1575 67.1465
lradius 52.2439 0 0
lwrist 19.0371 0 0
lhand -23.1402 -4.1819 0
lfingers 7.12502 0 0
lthumb 3.30837 25.7877 0
rclavicle -4.42974e-014 -3.52235e-014 0
rhumerus 26.6575 25.5559 -65.743
rradius 88.9666 0 0
rwrist -3.88575 0 0
rhand -28.5207 -27.1395 0
rfingers 7.12502 0 0
rthumb -1.88826 -777.134 0
751
root 3.65926 17.6592 14.7948 -140.631 4.77089 240.635
lfemur -24.2237 -6.76939 -10.5541
ltibia 24.5963 0 0
lfoot -12.1413 -3.134 0
ltoes 11.6116 0 0
rfemur -25.9052 -31.2678 2.15855
rtibia 113.313 0 0
rfoot 16.1965 -2.04974 0
rtoes 14.5075 0 0
lowerback 1.04971 7.62542 0.683167
upperback -2.03969 10.1872 -1.69207
thorax -2.31336 5.05602 -2.42333
lowerneck -7.23088 -7.88455 -1.14375
upperneck -2.44279 -10.502 3.59471
head 0.683543 -5.24951 0.98547
lclavicle -4.2635e-014 -3.42175e-014 0
lhumerus -63.3965 -13.1031 68.2949
lradius 52.8698 0 0
lwrist 18.7636 0 0
lhand -23.1484 -4.2569 0
lfingers 7.12502 0 0
lthumb 3.30053 25.7152 0
rclavicle -4.2635e-014 -3.42175e-014 0
rhumerus 24.924 26.4592 -67.526
rradius 88.6908 0 0
rwrist -3.49898 0 0
rhand -28.4229 -26.8427 0
rfingers 7.12502 0 0
rthumb -1.79369 -776.841 0
752
root 3.57808 17.6061 14.9382 -136.674 7.98987 244.865
lfemur -24.6127 -6.03645 -10.8805
ltibia 25.392 0 0
lfoot -12.6212 -2.27373 0
ltoes 11.6814 0 0
rfemur -25.7076 -31.2088 2.824
rtibia 111.637 0 0
rfoot 14.9609 -3.25699 0
rtoes 13.1519 0 0
lowerback 1.0558 7.54104 0.602241
upperback -2.00162 10.074 -1.78546
thorax -2.28092 5.00099 -2.47082
lowerneck -7.16429 -7.87632 -1.15126
upperneck -2.47787 -10.4844 3.66528
head 0.664256 -5.23849 1.01233
lclavicle -4.09079e-014 -3.31443e-014 0
lhumerus -63.4134 -13.0525 69.4445
lradius 53.5311 0 0
lwrist 18.4895 0 0
lhand -23.1564 -4.33503 0
lfingers 7.12502 0 0
lthumb 3.29295 25.6396 0
rclavicle -4.09079e-014 -3.31443e-014 0
rhumerus 23.0955 27.3681 -69.3328
rradius 88.4131 0 0
rwrist -3.10269 0 0
rhand -28.3259 -26.5456 0
rfingers 7.12502 0 0
rthumb -1.69988 -776.548 0
753
root 3.49562 17.5525 15.0796 -132.508 11.258 249.076
lfemur -25.0261 -5.27194 -11.1952
ltibia 26.2662 0 0
lfoot -13.1034 -1.38559 0
ltoes 11.7677 0 0
rfemur -25.491 -31.1275 3.51372
rtibia 109.842 0 0
rfoot 13.6939 -4.49492 0
rtoes 11.7455 0 0
lowerback 1.06273 7.44803 0.517445
upperback -1.96238 9.94906 -1.88172
thorax -2.24803 4.94022 -2.51865
lowerneck -7.09538 -7.86563 -1.15803
upperneck -2.51028 -10.4635 3.73837
head 0.645478 -5.22569 1.04002
lclavicle -3.91228e-014 -3.201e-014 0
lhumerus -63.3769 -13.0053 70.5936
lradius 54.2238 0 0
lwrist 18.2152 0 0
lhand -23.1636 -4.41561 0
lfingers 7.12502 0 0
lthumb 3.28611 25.5616 0
rclavicle -3.91228e-014 -3.201e-014 0
rhumerus 21.1808 28.2808 -71.1592
rradius 88.1334 0 0
rwrist -2.69835 0 0
rhand -28.2292 -26.2488 0
rfingers 7.12502 0 0
rthumb -1.60637 -776.255 0
